<?xml version="1.0" encoding="utf-8"?>
<!-- Generator: Adobe Illustrator 12.0.1, SVG Export Plug-In . SVG Version: 6.00 Build 51448)  -->
<!DOCTYPE svg PUBLIC "-//W3C//DTD SVG 1.1//EN" "http://www.w3.org/Graphics/SVG/1.1/DTD/svg11.dtd" [
	<!ENTITY ns_svg "http://www.w3.org/2000/svg">
	<!ENTITY ns_xlink "http://www.w3.org/1999/xlink">
]>
<svg  version="1.1" id="Layer_1" xmlns="&ns_svg;" xmlns:xlink="&ns_xlink;" width="318" height="400.159"
	 viewBox="0 0 318 400.159" overflow="visible" enable-background="new 0 0 318 400.159" xml:space="preserve">
<g>
	<path fill-rule="evenodd" clip-rule="evenodd" fill="#FFFFFF" d="M225,126c-2.005,1.41-8.354-3.875-12-7
		c-10.409-8.923-26.325-20.832-33-31c22.6-0.325,35.169-7.571,47-22c16.412-20.017,20.991-56.007,48-55
		c21.353,0.796,7.934,29.48,0,37C255.275,66.697,215.148,78.14,225,126z M267,36c4.722,0.663,8.23-3.698,6-10
		C263.015,18.713,257.754,34.702,267,36z"/>
	<path fill-rule="evenodd" clip-rule="evenodd" d="M273,26c2.23,6.302-1.278,10.663-6,10C257.754,34.702,263.015,18.713,273,26z"/>
	<path fill-rule="evenodd" clip-rule="evenodd" fill="#FFFFFF" d="M221,137c-4.556,5.444-8.272,11.727-14,16
		c-19.596-10.737-31.459-29.208-50-41c2.768-8.232,9.541-12.459,14-19C189.927,105.406,205.466,121.201,221,137z"/>
	<path fill-rule="evenodd" clip-rule="evenodd" fill="#FFFFFF" d="M184,161c-7.388,4.324-16.914,23.719-36,23
		c10.857-8.476,18.473-20.193,27-31c-14.168,6.501-20.629,29.369-42,32c10.032-13.968,20.788-27.212,32-40
		c-12.583,8.752-25.583,25.749-39,37c-6.654,0.013-14.144-0.81-16,4c21.978,5.192,45.867,1.209,72,2c5.147-3.519,7.984-9.349,13-13
		c5.646,1.354,8.926,5.074,15,6c-8.164,12.456-31.254,14.797-52,16c-33.494,1.942-69.206-1.768-88-14
		c8.226-11.441,27.041-12.292,45-14c0.598-1.78-2.931-4.153,0-5c-16.231-0.34-47.805,2.008-49,17c-1.5,18.814,52.057,21.284,73,20
		c23.872-1.463,77.948,3.323,75-20c-1.104-8.729-9.776-5.378-14-14c9.482-3.005,22.199,6.787,26,16
		c-12.427,19.974-57.03,26.725-95,25c-30.682-1.394-66.033-6.062-76-26c9.837-19.497,38.027-20.64,64-24
		c11.258-12.742,22.98-25.02,33-39c17.735,11.265,31.552,26.448,48,39c-5.749,9.251-14.481,15.519-20,25
		c-4.367,0.701-5.633-1.701-10-1C174.196,174.529,180.161,168.828,184,161z M119,174c1.122,0.211,1.557,1.11,2,2
		c7.494-4.368,12.267-12.913,18-20c5.637-6.968,12.687-13.632,15-21C144.065,149.087,126.184,160.488,119,174z"/>
	<path fill-rule="evenodd" clip-rule="evenodd" d="M154,135c-2.313,7.368-9.363,14.032-15,21c-5.733,7.087-10.506,15.632-18,20
		c-0.443-0.89-0.878-1.789-2-2C126.184,160.488,144.065,149.087,154,135z"/>
	<path fill-rule="evenodd" clip-rule="evenodd" fill="#FFFFFF" d="M223,194c1.086,0.247,0.679,1.988,2,2
		c-11.202,26.465-54.49,20.843-85,28c-29.686-7.98-75.18-0.153-84-29C99.147,218.329,181.974,221.012,223,194z"/>
	<path fill-rule="evenodd" clip-rule="evenodd" fill="#FFFFFF" d="M67,218c19.623,7.044,42.798,10.535,70,10
		c0.471,12.529,1.498,24.502,1,38c-7.447,7.887-22.289,8.378-29,17c-19.528,3.112-57.985,20.827-79,4
		c-2.733-21.041,10.66-33.782,23-43c-3.677,13.989-9.183,26.15-13,40c4.333,6.532,17.263,3.225,26,3
		C68.316,265.982,66.346,240.68,67,218z"/>
	<path fill-rule="evenodd" clip-rule="evenodd" fill="#FFFFFF" d="M67,321c4.066-0.783,7.274,3.656,12,6
		c14.696,7.289,43.902,15.518,64,11c2.175-20.158,0.449-44.218,1-66c5.835-2.429,9.575-13.044,18-14c3.188-0.361,6.584,2.584,10,2
		c14.79-2.527,18.792-22.594,11-34c10.703-1.963,21.12-4.213,30-8c2.591,32.822-0.037,78.981,1,107
		c-9.73,23.604-43.896,22.771-72,28C112.242,348.573,69.907,348.869,67,321z"/>
	<path fill-rule="evenodd" clip-rule="evenodd" fill="#FFFFFF" d="M170,256c-0.96-1.707-3.142-2.191-5-3
		c2.616-4.717,5.384-9.283,8-14c-0.966-2.367-1.754-4.913-6-4c-2.635,3.699-2.829,9.838-6,13c-4.45-0.217-4.114-5.22-7-7
		c2.964-6.702,7.8-11.533,13-16c6.32,3.522,15.566,7.822,16,14C183.53,246.552,173.044,249.365,170,256z"/>
	<path fill-rule="evenodd" clip-rule="evenodd" fill="#FFFFFF" d="M144,228c3,0,6,0,9,0c-3.76,6.28-4.554,20.083,1,25
		c-0.95,5.05-6.447,5.553-9,9C142.672,252.661,144.663,239.004,144,228z"/>
	<path fill-rule="evenodd" clip-rule="evenodd" fill="#FFFFFF" d="M136,275c3.316,10.058-1.129,40.594,2,57
		c-30.223-1.932-68.456-2.734-71-32C92.942,294.608,116.062,286.396,136,275z"/>
	<path fill-rule="evenodd" clip-rule="evenodd" fill="#FFFFFF" d="M214,337c1.957,3.77-1.062,10.783-4,14
		c-9.835,10.771-40.918,15.067-66,17c-34.187,2.634-72.925-7.403-78-30C100.44,364.718,179.538,363.506,214,337z"/>
	<path fill-rule="evenodd" clip-rule="evenodd" d="M271,0c3,0,6,0,9,0c0,0.333,0,0.667,0,1c32.793,8.75,8.031,50.516-8,60
		c16.101,3.566,30.721,8.613,46,13c0,6.667,0,13.333,0,20c-8.136,90.865-12.747,185.253-21,276
		c-93.773,11.227-190.993,19.008-285,30c-3.695-0.638-9.961,1.295-12-1c12.802-31.864,22.129-67.204,35-99
		c-17.485-10.046-13.447-32.779-1-48c9.854-12.051,29.278-18.058,26-35c-1.433-7.406-8.621-9.87-10-17
		c-5.405-27.937,14.146-36.406,33-42c16.25-46.75,30.243-95.757,49-140c23.061,5.967,46.501,14.587,71,22
		c6.214,1.88,19.533,7.562,25,6c6.674-1.907,12.68-21.324,18-28C252.814,9.45,261.817,3.603,271,0z M170,182
		c4.367-0.701,5.633,1.701,10,1c5.519-9.481,14.251-15.749,20-25c-16.448-12.552-30.265-27.735-48-39
		c-10.02,13.98-21.742,26.258-33,39c-25.973,3.36-54.163,4.503-64,24c9.967,19.938,45.318,24.606,76,26
		c37.97,1.725,82.573-5.026,95-25c-3.801-9.213-16.518-19.005-26-16c4.224,8.622,12.896,5.271,14,14
		c2.948,23.323-51.128,18.537-75,20c-20.943,1.284-74.5-1.186-73-20c1.195-14.992,32.769-17.34,49-17c-2.931,0.847,0.598,3.22,0,5
		c-17.959,1.708-36.774,2.559-45,14c18.794,12.232,54.506,15.942,88,14c20.746-1.203,43.836-3.544,52-16
		c-6.074-0.926-9.354-4.646-15-6c-5.016,3.651-7.853,9.481-13,13c-26.133-0.791-50.022,3.192-72-2c1.856-4.81,9.346-3.987,16-4
		c13.417-11.251,26.417-28.248,39-37c-11.212,12.788-21.968,26.032-32,40c21.371-2.631,27.832-25.499,42-32
		c-8.527,10.807-16.143,22.524-27,31c19.086,0.719,28.612-18.676,36-23C180.161,168.828,174.196,174.529,170,182z M275,48
		c7.934-7.52,21.353-36.204,0-37c-27.009-1.007-31.588,34.983-48,55c-11.831,14.429-24.4,21.675-47,22
		c6.675,10.168,22.591,22.077,33,31c3.646,3.125,9.995,8.41,12,7C215.148,78.14,255.275,66.697,275,48z M171,93
		c-4.459,6.541-11.232,10.768-14,19c18.541,11.792,30.404,30.263,50,41c5.728-4.273,9.444-10.556,14-16
		C205.466,121.201,189.927,105.406,171,93z M56,195c8.82,28.847,54.314,21.02,84,29c30.51-7.157,73.798-1.535,85-28
		c-1.321-0.012-0.914-1.753-2-2C181.974,221.012,99.147,218.329,56,195z M66,287c-8.737,0.225-21.667,3.532-26-3
		c3.817-13.85,9.323-26.011,13-40c-12.34,9.218-25.733,21.959-23,43c21.015,16.827,59.472-0.888,79-4
		c6.711-8.622,21.553-9.113,29-17c0.498-13.498-0.529-25.471-1-38c-27.202,0.535-50.377-2.956-70-10
		C66.346,240.68,68.316,265.982,66,287z M142,353c28.104-5.229,62.27-4.396,72-28c-1.037-28.019,1.591-74.178-1-107
		c-8.88,3.787-19.297,6.037-30,8c7.792,11.406,3.79,31.473-11,34c-3.416,0.584-6.812-2.361-10-2c-8.425,0.956-12.165,11.571-18,14
		c-0.551,21.782,1.175,45.842-1,66c-20.098,4.518-49.304-3.711-64-11c-4.726-2.344-7.934-6.783-12-6
		C69.907,348.869,112.242,348.573,142,353z M183,239c-0.434-6.178-9.68-10.478-16-14c-5.2,4.467-10.036,9.298-13,16
		c2.886,1.78,2.55,6.783,7,7c3.171-3.162,3.365-9.301,6-13c4.246-0.913,5.034,1.633,6,4c-2.616,4.717-5.384,9.283-8,14
		c1.858,0.809,4.04,1.293,5,3C173.044,249.365,183.53,246.552,183,239z M145,262c2.553-3.447,8.05-3.95,9-9
		c-5.554-4.917-4.76-18.72-1-25c-3,0-6,0-9,0C144.663,239.004,142.672,252.661,145,262z M67,300c2.544,29.266,40.777,30.068,71,32
		c-3.129-16.406,1.316-46.942-2-57C116.062,286.396,92.942,294.608,67,300z M66,338c5.075,22.597,43.813,32.634,78,30
		c25.082-1.933,56.165-6.229,66-17c2.938-3.217,5.957-10.23,4-14C179.538,363.506,100.44,364.718,66,338z"/>
</g>
</svg>
