<?xml version="1.0" encoding="utf-8"?>
<!-- Generator: Adobe Illustrator 16.0.4, SVG Export Plug-In . SVG Version: 6.00 Build 0)  -->
<!DOCTYPE svg PUBLIC "-//W3C//DTD SVG 1.1//EN" "http://www.w3.org/Graphics/SVG/1.1/DTD/svg11.dtd">
<svg version="1.1" id="Layer_1" xmlns="http://www.w3.org/2000/svg" xmlns:xlink="http://www.w3.org/1999/xlink" x="0px" y="0px"
	 width="431.2px" height="363.4px" viewBox="0 0 431.2 363.4" enable-background="new 0 0 431.2 363.4" xml:space="preserve">
<g>
	<rect x="64.3" y="69.3" fill="#FFFFFF" width="299.7" height="283"/>
	<path stroke="#000000" stroke-width="2.4408" stroke-miterlimit="10" d="M81,73.2c0,91.7,0,182.6,0,275.7
		c-14.6-1-29.2-0.3-43.1-3.5c-16.3-3.5-27.8-19.1-27.8-36.5c-0.3-65.6-0.3-131.6,0-197.2c0-19.8,17-36.8,36.8-38.5
		C58.1,72.8,69.2,73.2,81,73.2z"/>
	<path stroke="#000000" stroke-width="2.4408" stroke-miterlimit="10" d="M350.1,73.2c0,91.7,0,182.6,0,275.7
		c14.6-1,29.2-0.3,43.1-3.5c16.3-3.5,27.8-19.1,27.8-36.5c0.3-65.6,0.3-131.6,0-197.2c0-19.8-17-36.8-36.8-38.5
		C373,72.8,361.9,73.2,350.1,73.2z"/>
	<path stroke="#000000" stroke-width="2.4408" stroke-miterlimit="2" d="M274.7,73.2c0-12.8,0.3-24.3,0-35.8
		c-0.3-16-10.4-26-26.4-26c-21.2-0.3-42.4-0.3-63.5,0c-16.3,0.3-25.7,10.4-25.7,26.4c0,11.8,0,23.6,0,35.8c-18.8,0-36.1,0-54.5,0
		c0,92.4,0,183,0,274.7c75,0,149.7,0,224.7,0c0-91.7,0-182.6,0-275C310.9,73.2,292.9,73.2,274.7,73.2z M303.5,165.2
		c-10.1,4.5-20.1,9.4-30.2,13.9c-1.7,0.7-3.8,1.4-5.2,1.4c-2.8,0-6.6-1-9-6.6l-4.9-10.8c-3.8-8-7.3-16-11.1-24
		c-1.7-3.8-2.1-7.6-1.4-11.8c1.4-6.9,3.5-15.3,4.9-23.6c0-0.7,0-1.7-0.3-2.4c-3.8-8.3-10.4-27.8-10.4-27.8s-38.2,0-55.9,0
		c0-13.5,0-26.7,0-40.3c24.3,0,48.3,0,72.6,0c0,13.5,0,36.8,0,36.8s5.9,18.1,9.4,25.3c0,0,6.2,3.5,8.7,4.9c4.9,2.4,9.7,5.2,14.2,8
		c3.1,1.7,5.6,4.5,6.9,7.3c4.5,9.7,9,19.4,13.5,28.8l3.1,6.9C311.5,156.8,309.4,162.4,303.5,165.2z"/>
</g>
</svg>
